Coordinates
version=1
nRows=14
nColumns=63
inDegrees=yes

Units are S.I. units (second, meters, Newtons, ...)
If the header above contains a line with 'inDegrees', this indicates whether rotational values are in degrees (yes) or radians (no).

endheader
time	pelvis_tilt	pelvis_list	pelvis_rotation	pelvis_tx	pelvis_ty	pelvis_tz	hip_flexion_r	hip_adduction_r	hip_rotation_r	knee_angle_r	knee_angle_r_beta	ankle_angle_r	subtalar_angle_r	mtp_angle_r	hip_flexion_l	hip_adduction_l	hip_rotation_l	knee_angle_l	knee_angle_l_beta	ankle_angle_l	subtalar_angle_l	mtp_angle_l	L5_S1_Flex_Ext	L5_S1_Lat_Bending	L5_S1_axial_rotation	L4_L5_Flex_Ext	L4_L5_Lat_Bending	L4_L5_axial_rotation	L3_L4_Flex_Ext	L3_L4_Lat_Bending	L3_L4_axial_rotation	L2_L3_Flex_Ext	L2_L3_Lat_Bending	L2_L3_axial_rotation	L1_L2_Flex_Ext	L1_L2_Lat_Bending	L1_L2_axial_rotation	L1_T12_Flex_Ext	L1_T12_Lat_Bending	L1_T12_axial_rotation	Abs_r3	Abs_r2	Abs_r1	Abs_t1	Abs_t2	neck_flexion	neck_bending	neck_rotation	arm_flex_r	arm_add_r	arm_rot_r	elbow_flex_r	pro_sup_r	wrist_flex_r	wrist_dev_r	arm_flex_l	arm_add_l	arm_rot_l	elbow_flex_l	pro_sup_l	wrist_flex_l	wrist_dev_l
1.366667	0.352044	-34.479022	88.636767	0.245067	0.745904	0.797419	43.518235	0.065185	-20.227799	19.251731	0.336006	22.692074	12.041011	0.000000	41.641919	-5.186751	10.745247	14.739274	0.257249	18.518624	-14.733590	0.000000	-0.363249	-1.841378	5.399032	-0.674590	-2.449033	5.736472	-0.596782	-4.477128	5.736472	-0.415157	-4.477128	4.724153	-0.337313	-3.754939	4.386714	-0.207560	-2.852295	4.049274	-2.594651	-20.830041	30.027797	0.000000	0.000000	4.940711	3.203770	-13.609370	98.912275	-32.717152	152.376355	0.884360	6.266544	-8.291199	-5.021014	-0.655597	-28.117068	20.574195	148.313613	88.806983	-6.307211	14.230874
1.383333	0.541423	-34.139121	88.585077	0.244674	0.746483	0.797742	43.182418	0.215904	-20.768073	19.181049	0.334772	22.504901	12.461763	0.000000	41.357919	-5.375397	10.682496	14.891960	0.259914	18.613434	-14.653844	0.000000	-0.420998	-1.741316	5.331020	-0.781835	-2.315950	5.664208	-0.691657	-4.233835	5.664208	-0.481158	-4.233835	4.664642	-0.390939	-3.550891	4.331454	-0.240558	-2.697298	3.998265	-3.007145	-19.698111	29.649533	0.000000	0.000000	5.333555	2.621897	-13.816337	98.124552	-31.310070	149.984504	0.726622	6.092893	-8.345020	-5.145883	1.830166	-27.891093	19.794225	148.043513	88.898915	-6.287838	14.469711
1.400000	0.737200	-33.798956	88.515665	0.244188	0.747163	0.797889	42.813969	0.384961	-21.351394	19.054055	0.332556	22.296056	12.958234	0.000000	41.050838	-5.578343	10.589375	15.015412	0.262068	18.706691	-14.555297	0.000000	-0.477976	-1.629817	5.243148	-0.887649	-2.167657	5.570845	-0.785267	-3.962738	5.570845	-0.546279	-3.962738	4.587755	-0.443849	-3.323523	4.260058	-0.273116	-2.524587	3.932361	-3.414135	-18.436819	29.160818	0.000000	0.000000	5.767868	1.846510	-13.819101	97.380192	-29.726199	146.909291	0.628324	5.863971	-8.355683	-5.133201	4.363718	-27.767912	18.794107	147.859453	88.982851	-6.306557	15.008526
1.416667	0.967637	-33.457416	88.493403	0.243533	0.747874	0.797918	42.407555	0.561804	-22.016238	18.868208	0.329312	22.078234	13.517106	0.000000	40.760707	-5.777846	10.530637	15.165103	0.264681	18.808913	-14.463170	0.000000	-0.534862	-1.503957	5.128620	-0.993292	-2.000262	5.449159	-0.878724	-3.656720	5.449159	-0.611293	-3.656720	4.487543	-0.496673	-3.066869	4.167004	-0.305620	-2.329629	3.846465	-3.820463	-17.013059	28.523847	0.000000	0.000000	6.208300	1.038295	-13.448620	96.680226	-27.987171	143.265975	0.550099	5.580494	-8.325923	-4.977599	6.975824	-27.894318	17.652352	147.767629	89.065903	-6.548480	15.935593
1.433333	1.215876	-33.152425	88.503701	0.242745	0.748498	0.797836	42.014118	0.747100	-22.664174	18.647883	0.325467	21.855467	14.021198	0.000000	40.530812	-5.971499	10.455771	15.351435	0.267933	18.946185	-14.328026	0.000000	-0.585491	-1.366175	4.979681	-1.087314	-1.817013	5.290911	-0.961902	-3.321718	5.290911	-0.669157	-3.321718	4.357221	-0.543687	-2.785904	4.045991	-0.334549	-2.116205	3.734761	-4.182100	-15.454444	27.695490	0.000000	0.000000	6.629520	0.261411	-12.554119	96.005560	-26.046485	138.834101	0.491859	5.412683	-8.299141	-4.697766	9.454682	-28.455873	16.131276	147.787802	89.083297	-6.918433	17.204760
1.450000	1.530744	-32.886455	88.610023	0.241727	0.748968	0.797719	41.635458	0.942035	-23.356940	18.399067	0.321124	21.649176	14.515323	0.000000	40.400519	-6.166187	10.422464	15.626181	0.272728	19.152606	-14.131427	0.000000	-0.628400	-1.211790	4.790289	-1.167002	-1.611681	5.089682	-1.032399	-2.946346	5.089682	-0.718199	-2.946346	4.191503	-0.583533	-2.471082	3.892110	-0.359068	-1.877063	3.592717	-4.488601	-13.708012	26.642150	0.000000	0.000000	6.985850	-0.500358	-11.119653	95.378088	-23.911673	134.026923	0.432089	5.185469	-8.261718	-4.343174	11.686330	-29.509893	14.163093	147.899043	89.078745	-7.366410	18.794132
1.466667	1.923525	-32.681520	88.831550	0.240440	0.749225	0.797530	41.285848	1.147845	-24.095909	18.117389	0.316208	21.472429	14.993413	0.000000	40.396515	-6.359728	10.453488	16.002280	0.279292	19.441433	-13.899103	0.000000	-0.660392	-1.039550	4.546842	-1.226414	-1.382601	4.831019	-1.084958	-2.527561	4.831019	-0.754762	-2.527561	3.978487	-0.613240	-2.119850	3.694309	-0.377348	-1.610263	3.410131	-4.717113	-11.759595	25.288170	0.000000	0.000000	7.250410	-1.282871	-9.106807	94.789440	-21.530559	128.966186	0.383576	4.824715	-8.246790	-3.970749	12.233690	-31.181541	10.247752	148.139016	88.995121	-7.629598	20.636042
1.483333	2.232039	-32.483632	89.009359	0.239309	0.749349	0.797369	40.948417	1.310126	-24.697681	17.838042	0.311333	21.364653	15.420051	0.000000	40.424979	-6.514234	10.361355	16.434495	0.286836	19.812767	-13.556368	0.000000	-0.687246	-0.876465	4.285140	-1.276284	-1.165699	4.552961	-1.129076	-2.131038	4.552961	-0.785453	-2.131038	3.749497	-0.638177	-1.787288	3.481676	-0.392692	-1.357645	3.213855	-4.908929	-9.914751	23.832662	0.000000	0.000000	7.378629	-1.875212	-6.940493	94.196714	-19.050875	123.640337	0.360414	4.307280	-8.265205	-3.710155	13.541656	-33.418783	6.759781	148.222594	88.840300	-6.814854	22.645042
1.500000	2.703211	-32.326140	89.367212	0.237717	0.749451	0.796900	40.564361	1.536134	-25.361928	17.466444	0.304847	21.259655	15.830232	0.000000	40.522627	-6.708455	10.419618	16.930336	0.295490	20.276737	-13.198518	0.000000	-0.707397	-0.682450	3.973685	-1.313707	-0.907659	4.222040	-1.162183	-1.659309	4.222040	-0.808484	-1.659309	3.476974	-0.656889	-1.391652	3.228619	-0.404207	-1.057115	2.980264	-5.052866	-7.720013	22.100443	0.000000	0.000000	7.323687	-2.611269	-4.292969	93.581537	-16.399600	118.546794	0.356584	3.648883	-8.295828	-3.511484	17.461398	-35.321095	5.397859	148.391843	89.284803	-4.222191	24.735635
1.516667	2.964276	-32.205886	89.569499	0.236542	0.749426	0.796217	40.228042	1.673007	-25.757585	17.095067	0.298365	21.263116	16.188834	0.000000	40.617059	-6.816546	10.263318	17.394616	0.303593	20.794176	-12.734216	0.000000	-0.719781	-0.509151	3.627085	-1.336705	-0.677170	3.853778	-1.182528	-1.237949	3.853778	-0.822638	-1.237949	3.173700	-0.668389	-1.038260	2.947007	-0.411283	-0.788674	2.720314	-5.141324	-5.759615	20.172760	0.000000	0.000000	7.152028	-3.173878	-1.284863	92.891354	-13.492192	113.263628	0.391775	2.907555	-8.405029	-3.408249	21.207382	-37.081910	2.287266	147.868835	89.311768	5.189106	26.906808
1.533333	3.051990	-32.095083	89.637065	0.235706	0.749306	0.795363	39.918815	1.739926	-25.887371	16.739895	0.292166	21.371184	16.463975	0.000000	40.685008	-6.858091	9.921197	17.832073	0.311228	21.362441	-12.168469	0.000000	-0.728872	-0.365458	3.249235	-1.353588	-0.486060	3.452312	-1.197463	-0.888576	3.452312	-0.833028	-0.888576	2.843080	-0.676830	-0.745243	2.640003	-0.416477	-0.566095	2.436926	-5.206258	-4.134138	18.071269	0.000000	0.000000	6.915479	-3.291946	1.664015	92.095170	-10.441276	108.221453	0.425787	2.080780	-8.481453	-3.467935	24.036589	-41.166391	-0.670316	147.463879	88.835365	11.622720	28.935462
1.550000	2.866775	-31.960793	89.455212	0.235437	0.749071	0.794470	39.659925	1.701134	-25.642325	16.464762	0.287364	21.608847	16.627516	0.000000	40.688824	-6.808587	9.287297	18.230556	0.318183	21.956074	-11.502059	0.000000	-0.735934	-0.271636	2.859647	-1.366703	-0.361276	3.038375	-1.209066	-0.660456	3.038375	-0.841099	-0.660456	2.502191	-0.683388	-0.553920	2.323463	-0.420513	-0.420764	2.144735	-5.256704	-3.072800	15.904497	0.000000	0.000000	6.612938	-2.724008	4.341158	91.184731	-7.312407	103.540459	0.442486	1.248190	-8.509315	-3.772245	24.828918	-48.142016	-3.550968	147.331378	87.688374	11.994792	30.529704
1.566667	2.443647	-31.865458	89.063210	0.235609	0.748611	0.793424	39.493563	1.560154	-25.116206	16.266808	0.283909	21.973997	16.731138	0.000000	40.682732	-6.670073	8.473971	18.582415	0.324324	22.539712	-10.835102	0.000000	-0.735411	-0.213407	2.429917	-1.365732	-0.283832	2.581787	-1.208207	-0.518879	2.581787	-0.840501	-0.518879	2.126177	-0.682903	-0.435181	1.974308	-0.420214	-0.330568	1.822438	-5.252966	-2.414108	13.514470	0.000000	0.000000	6.272973	-1.674283	7.254447	90.165689	-3.962161	99.677536	0.443960	0.549613	-8.581323	-4.215107	24.785121	-56.529440	-6.732023	147.129565	85.626278	11.735102	31.890881
1.583333	1.899966	-31.826613	88.574370	0.235959	0.747972	0.792080	39.389813	1.363091	-24.421093	16.099727	0.280993	22.413120	16.767009	0.000000	40.686012	-6.477479	7.603615	18.891705	0.329722	23.097677	-10.187566	0.000000	-0.724991	-0.171354	1.959857	-1.346382	-0.227900	2.082348	-1.191088	-0.416629	2.082348	-0.828593	-0.416629	1.714875	-0.673227	-0.349424	1.592384	-0.414260	-0.265427	1.469893	-5.178542	-1.938386	10.900136	0.000000	0.000000	5.878897	-0.362125	10.521246	89.013122	-0.447381	96.961032	0.435500	0.093720	-8.847721	-4.748671	24.777448	-65.409946	-9.595956	146.836659	83.101368	11.341447	33.063521
